<?xml version="1.0" encoding="UTF-8" standalone="no"?>
<!DOCTYPE svg PUBLIC "-//W3C//DTD SVG 1.1//EN"
 "http://www.w3.org/Graphics/SVG/1.1/DTD/svg11.dtd">
<!-- Generated by graphviz version 2.43.0 (0)
 -->
<!-- Title: %3 Pages: 1 -->
<svg width="173pt" height="404pt"
 viewBox="0.00 0.00 173.09 404.00" xmlns="http://www.w3.org/2000/svg" xmlns:xlink="http://www.w3.org/1999/xlink">
<g id="graph0" class="graph" transform="scale(1 1) rotate(0) translate(4 400)">
<title>%3</title>
<polygon fill="white" stroke="transparent" points="-4,4 -4,-400 169.09,-400 169.09,4 -4,4"/>
<!-- A -->
<g id="node1" class="node">
<title>A</title>
<ellipse fill="none" stroke="black" cx="82.54" cy="-378" rx="72.29" ry="18"/>
<text text-anchor="middle" x="82.54" y="-374.3" font-family="Times,serif" font-size="14.00">Imagem Original</text>
</g>
<!-- B -->
<g id="node2" class="node">
<title>B</title>
<ellipse fill="none" stroke="black" cx="82.54" cy="-306" rx="69.59" ry="18"/>
<text text-anchor="middle" x="82.54" y="-302.3" font-family="Times,serif" font-size="14.00">Filtro Gaussiano</text>
</g>
<!-- A&#45;&gt;B -->
<g id="edge1" class="edge">
<title>A&#45;&gt;B</title>
<path fill="none" stroke="black" d="M82.54,-359.7C82.54,-351.98 82.54,-342.71 82.54,-334.11"/>
<polygon fill="black" stroke="black" points="86.04,-334.1 82.54,-324.1 79.04,-334.1 86.04,-334.1"/>
</g>
<!-- C -->
<g id="node3" class="node">
<title>C</title>
<ellipse fill="none" stroke="black" cx="82.54" cy="-234" rx="69.59" ry="18"/>
<text text-anchor="middle" x="82.54" y="-230.3" font-family="Times,serif" font-size="14.00">Filtro de Nitidez</text>
</g>
<!-- B&#45;&gt;C -->
<g id="edge2" class="edge">
<title>B&#45;&gt;C</title>
<path fill="none" stroke="black" d="M82.54,-287.7C82.54,-279.98 82.54,-270.71 82.54,-262.11"/>
<polygon fill="black" stroke="black" points="86.04,-262.1 82.54,-252.1 79.04,-262.1 86.04,-262.1"/>
</g>
<!-- D -->
<g id="node4" class="node">
<title>D</title>
<ellipse fill="none" stroke="black" cx="82.54" cy="-162" rx="74.99" ry="18"/>
<text text-anchor="middle" x="82.54" y="-158.3" font-family="Times,serif" font-size="14.00">Filtro de Mediana</text>
</g>
<!-- C&#45;&gt;D -->
<g id="edge3" class="edge">
<title>C&#45;&gt;D</title>
<path fill="none" stroke="black" d="M82.54,-215.7C82.54,-207.98 82.54,-198.71 82.54,-190.11"/>
<polygon fill="black" stroke="black" points="86.04,-190.1 82.54,-180.1 79.04,-190.1 86.04,-190.1"/>
</g>
<!-- E -->
<g id="node5" class="node">
<title>E</title>
<ellipse fill="none" stroke="black" cx="82.54" cy="-90" rx="80.69" ry="18"/>
<text text-anchor="middle" x="82.54" y="-86.3" font-family="Times,serif" font-size="14.00">Ajuste de Contraste</text>
</g>
<!-- D&#45;&gt;E -->
<g id="edge4" class="edge">
<title>D&#45;&gt;E</title>
<path fill="none" stroke="black" d="M82.54,-143.7C82.54,-135.98 82.54,-126.71 82.54,-118.11"/>
<polygon fill="black" stroke="black" points="86.04,-118.1 82.54,-108.1 79.04,-118.1 86.04,-118.1"/>
</g>
<!-- F -->
<g id="node6" class="node">
<title>F</title>
<ellipse fill="none" stroke="black" cx="82.54" cy="-18" rx="82.59" ry="18"/>
<text text-anchor="middle" x="82.54" y="-14.3" font-family="Times,serif" font-size="14.00">Normalização [0, 1]</text>
</g>
<!-- E&#45;&gt;F -->
<g id="edge5" class="edge">
<title>E&#45;&gt;F</title>
<path fill="none" stroke="black" d="M82.54,-71.7C82.54,-63.98 82.54,-54.71 82.54,-46.11"/>
<polygon fill="black" stroke="black" points="86.04,-46.1 82.54,-36.1 79.04,-46.1 86.04,-46.1"/>
</g>
</g>
</svg>
